# xmcd
#
# Track frame offsets: 
#        150
#        12226
#        28638
#        46045
#        60041
#        74907
#        88696
#        103074
#        121429
#        141846
#        158467
#        175500
#        194893
#        217000
#        230950
#        252262
#
# Disc length: 3748 seconds
#
# Revision: 0
# Processed by: cddbd v1.5.2PL0 Copyright (c) Steve Scherf et al.
# Submitted via: ExactAudioCopy v0.99pb3
#
DISCID=e20ea210
DTITLE=Various Artist - Barrelhouse Blues and Boogie Woogie Vol. 4
DYEAR=2005
DGENRE=Blues
TTITLE0=Champion Jack Dupree - I Want To Settle Down
TTITLE1=Little Brother Montgomery - I Must Get Mine In Front
TTITLE2=Champion Jack Dupree - When I'm Drinking
TTITLE3=Speckled Red - The Dirty Dozen
TTITLE4=Eddie Boyd - I'm Coming Home To You
TTITLE5=Sunnyland Slim - Johnson Machine Gun Blues
TTITLE6=Champion Jack Dupree - Tee-Na-Nee-Na
TTITLE7=Speckled Red - Red's Own Blues
TTITLE8=Champion Jack Dupree - Please, Don't Dog Your Woman
TTITLE9=Memphis Slim - Memphis Boogie
TTITLE10=Sunnyland Slim - I Done You Wrong
TTITLE11=Champion Jack Dupree - I'm A Gamblin' Man
TTITLE12=Eddie Boyd - I Got A Woman
TTITLE13=Memphis Slim - Midnight Jump
TTITLE14=Champion Jack Dupree - People Talk
TTITLE15=Memphis Slim - Blues Made Up
EXTD=
EXTT0=
EXTT1=
EXTT2=
EXTT3=
EXTT4=
EXTT5=
EXTT6=
EXTT7=
EXTT8=
EXTT9=
EXTT10=
EXTT11=
EXTT12=
EXTT13=
EXTT14=
EXTT15=
PLAYORDER=
